<svg width="140" height="56" viewBox="0 0 140 56" fill="none" xmlns="http://www.w3.org/2000/svg">
<path d="M11.2937 12.5562H22.5873V13.3218C22.6114 14.8835 22.4051 16.4402 21.9751 17.9415C21.5465 19.2284 20.8584 20.4132 19.9537 21.4224C17.8057 23.8428 15.0764 25.053 11.7658 25.053C8.53276 25.053 5.76473 23.8824 3.46173 21.5412C2.34514 20.4383 1.46315 19.1201 0.869012 17.6661C0.274873 16.2122 -0.0191106 14.6526 0.00483182 13.0817C-0.0257424 11.4896 0.270623 9.90831 0.8755 8.43587C1.48038 6.96342 2.38086 5.63131 3.52104 4.52226C5.86833 2.17317 8.72259 0.998632 12.0838 0.998632C13.8323 0.985269 15.5615 1.36468 17.1445 2.10898C18.6408 2.84921 20.1126 4.04911 21.5599 5.70869L19.0639 8.10057C17.1659 5.56445 14.855 4.29639 12.1312 4.29639C10.9875 4.27143 9.85098 4.48417 8.79336 4.92121C7.73574 5.35824 6.7799 6.0101 5.98615 6.83568C4.33007 8.49526 3.50204 10.5757 3.50204 13.0769C3.50204 15.6574 4.42502 17.7822 6.27091 19.4513C7.99816 21.0015 9.86933 21.7766 11.8845 21.7766C13.587 21.7819 15.2326 21.1629 16.511 20.0362C17.8776 18.8664 18.6408 17.4668 18.8006 15.8373H11.2937V12.5562Z" fill="white"/>
<path d="M32.2863 1.45508V24.6178H28.7915V1.45508H32.2863Z" fill="white"/>
<path d="M49.808 12.5562H61.1016V13.3218C61.1261 14.8837 60.9191 16.4406 60.4871 17.9415C60.0603 19.2292 59.3721 20.4144 58.4657 21.4224C56.3208 23.8428 53.5915 25.053 50.2778 25.053C47.0432 25.053 44.2751 23.8824 41.9737 21.5412C40.8577 20.438 39.9762 19.1197 39.3824 17.6658C38.7887 16.2118 38.4951 14.6525 38.5192 13.0817C38.5192 9.71974 39.6921 6.8666 42.0378 4.52227C44.3835 2.17794 47.2377 1.0034 50.6005 0.998643C52.3482 0.98507 54.0768 1.3645 55.6589 2.10899C57.1568 2.84922 58.6294 4.04912 60.0767 5.7087L57.5901 8.08632C55.692 5.55019 53.3819 4.28213 50.6598 4.28213C48.2144 4.28213 46.1637 5.12698 44.5076 6.81667C42.8516 8.47625 42.0235 10.5567 42.0235 13.0579C42.0235 15.6384 42.9465 17.7632 44.7923 19.4323C46.5164 20.9825 48.3876 21.7576 50.4059 21.7576C52.1077 21.763 53.7526 21.1439 55.0301 20.0172C56.3999 18.8474 57.1639 17.4478 57.322 15.8183H49.8152L49.808 12.5562Z" fill="white"/>
<path d="M81.1073 18.2767H71.6833L68.8077 24.6178H65.0496L76.4807 0L87.5133 24.6178H83.9425L81.1073 18.2767ZM79.6363 14.9932L76.4262 7.82949L73.1757 14.9932H79.6363Z" fill="white"/>
<path d="M4.43672 40.6691L13.4336 31.4297H18.0886L7.64917 41.915L18.1574 54.5901H13.4882L5.16507 44.2855L4.45329 44.9987V54.5829H0.965576V31.4297H4.45329L4.43672 40.6691Z" fill="white"/>
<path d="M27.0476 31.4297V54.5901H23.5718V31.4297H27.0476Z" fill="white"/>
<path d="M42.4647 34.7132V54.5901H38.977V34.7132H33.6624V31.4297H47.7722V34.7132H42.4647Z" fill="white"/>
<path d="M69.434 32.6733V36.8151C67.4173 35.1254 65.3318 34.2797 63.1775 34.2781C62.0529 34.2569 60.9366 34.4746 59.902 34.9167C58.8674 35.3589 57.9379 36.0156 57.1748 36.8436C55.5377 38.5444 54.7192 40.6248 54.7192 43.0848C54.6935 44.223 54.8978 45.3547 55.3198 46.4117C55.7418 47.4688 56.3728 48.4294 57.1748 49.2357C57.9507 50.0477 58.8862 50.6894 59.9223 51.1204C60.9584 51.5513 62.0725 51.7621 63.1941 51.7394C64.2683 51.7697 65.3362 51.5653 66.3235 51.1402C66.8437 50.9173 67.3418 50.6459 67.8112 50.3294C68.3763 49.9516 68.9189 49.5412 69.4364 49.1002V53.3157C67.5249 54.4227 65.3568 55.0073 63.149 55.011C61.5773 55.0361 60.0169 54.741 58.5625 54.1434C57.1081 53.5459 55.79 52.6584 54.6883 51.5349C53.5631 50.4433 52.6731 49.1323 52.0732 47.6826C51.4734 46.2329 51.1764 44.6754 51.2006 43.1062C51.1813 40.2069 52.22 37.4004 54.1213 35.2149C56.5144 32.3856 59.613 30.9701 63.4171 30.9685C65.5392 30.9847 67.6177 31.5736 69.434 32.6733V32.6733Z" fill="white"/>
<path d="M80.277 44.9655H87.3616V31.4297H90.8493V54.5901H87.3616V48.2513H80.277V54.5901H76.7893V31.4297H80.277V44.9655Z" fill="white"/>
<path d="M112.781 34.7132H102.169V44.9655H112.511V48.2513H102.169V51.2971H112.781V54.5829H98.6812V31.4297H112.781V34.7132Z" fill="white"/>
<path d="M119.662 54.5901V29.8629L136.508 47.5357V31.4298H139.995V56.0001L123.15 38.3748V54.5901H119.662Z" fill="white"/>
</svg>
