<svg width="164" height="36" viewBox="0 0 164 36" fill="none" xmlns="http://www.w3.org/2000/svg">
<path d="M50.8203 11.5859H56.0703V26H59.1172V11.5859H64.3438V9.03125H50.8203V11.5859ZM70.2969 26.2578C74.0234 26.2578 76.4023 23.6211 76.3906 19.6953C76.4023 15.7344 74.0234 13.1094 70.2969 13.1094C66.582 13.1094 64.2031 15.7344 64.2031 19.6953C64.2031 23.6211 66.582 26.2578 70.2969 26.2578ZM67.2266 19.6719C67.2266 17.3398 68.2461 15.4648 70.3203 15.4766C72.3594 15.4648 73.3789 17.3398 73.3672 19.6719C73.3789 22.0039 72.3594 23.8672 70.3203 23.8672C68.2461 23.8672 67.2266 22.0039 67.2266 19.6719ZM84.2656 31.0391C87.6992 31.0391 90.2188 29.4688 90.2188 26.2109V13.2734H87.2656V15.3594H87.125C86.6562 14.457 85.707 13.1094 83.4688 13.1094C80.5156 13.1094 78.1953 15.3477 78.1953 19.5312C78.1953 23.6797 80.5039 25.8125 83.4453 25.8125C85.6367 25.8125 86.6562 24.6406 87.125 23.7031H87.2656V26.1406C87.2656 28.0039 86.1055 28.7773 84.3125 28.7891C82.7773 28.7773 81.7344 28.2617 81.5234 27.1484H78.5469C78.7461 29.5391 80.8906 31.0391 84.2656 31.0391ZM81.2422 19.5781C81.2422 17.2578 82.2734 15.5586 84.2656 15.5469C86.2109 15.5586 87.2891 17.1523 87.2891 19.5781C87.2891 22.0156 86.1992 23.4688 84.2656 23.4688C82.2969 23.4688 81.2422 21.9219 81.2422 19.5781ZM93.0781 26H96.0781V13.2734H93.0781V26ZM92.8672 9.82812C92.8672 10.7305 93.6523 11.457 94.6016 11.4688C95.5508 11.457 96.3359 10.7305 96.3359 9.82812C96.3359 8.9375 95.5508 8.21094 94.6016 8.21094C93.6523 8.21094 92.8672 8.9375 92.8672 9.82812ZM110.305 13.2734H107.141L104.188 22.7422H104.047L101.117 13.2734H97.9297L102.477 26H105.758L110.305 13.2734ZM112.18 26H115.18V13.2734H112.18V26ZM111.969 9.82812C111.969 10.7305 112.754 11.457 113.703 11.4688C114.652 11.457 115.438 10.7305 115.438 9.82812C115.438 8.9375 114.652 8.21094 113.703 8.21094C112.754 8.21094 111.969 8.9375 111.969 9.82812ZM125.258 16.9062H128.094C127.871 14.5977 125.996 13.1094 122.961 13.1094C119.855 13.1094 117.816 14.6445 117.828 17C117.816 18.8164 119.047 20.0586 121.414 20.5391L123.453 20.9844C124.719 21.2539 125.293 21.7227 125.305 22.4609C125.293 23.4102 124.355 23.9961 122.914 23.9844C121.52 23.9961 120.676 23.457 120.5 22.3672H117.453C117.77 24.8047 119.68 26.2578 122.914 26.2578C126.242 26.2578 128.34 24.5938 128.352 22.2031C128.34 20.375 127.168 19.2617 124.766 18.7344L122.609 18.2891C121.32 17.9844 120.793 17.4922 120.805 16.8359C120.793 15.9688 121.73 15.3242 123.008 15.3359C124.273 15.3242 125.07 15.9453 125.258 16.9062ZM130.625 26H133.625V13.2734H130.625V26ZM130.414 9.82812C130.414 10.7305 131.199 11.457 132.148 11.4688C133.098 11.457 133.883 10.7305 133.883 9.82812C133.883 8.9375 133.098 8.21094 132.148 8.21094C131.199 8.21094 130.414 8.9375 130.414 9.82812ZM142.039 26.2578C145.766 26.2578 148.145 23.6211 148.133 19.6953C148.145 15.7344 145.766 13.1094 142.039 13.1094C138.324 13.1094 135.945 15.7344 135.945 19.6953C135.945 23.6211 138.324 26.2578 142.039 26.2578ZM138.969 19.6719C138.969 17.3398 139.988 15.4648 142.062 15.4766C144.102 15.4648 145.121 17.3398 145.109 19.6719C145.121 22.0039 144.102 23.8672 142.062 23.8672C139.988 23.8672 138.969 22.0039 138.969 19.6719ZM153.453 18.5469C153.453 16.6953 154.566 15.6289 156.148 15.6406C157.707 15.6289 158.633 16.6484 158.633 18.3594V26H161.609V17.8906C161.621 14.8438 159.887 13.1094 157.25 13.1094C155.352 13.1094 154.051 14.0117 153.477 15.4297H153.312V13.2734H150.453V26H153.453V18.5469Z" fill="white"/>
<path d="M16.8642 2H33.9999V19.1843" stroke="white" stroke-width="3.5" stroke-miterlimit="10"/>
<path d="M2 16.877V34H19.1971" stroke="white" stroke-width="3.5" stroke-miterlimit="10"/>
<path d="M17.9608 24.3125C21.3971 24.3125 24.1827 21.5289 24.1827 18.0952C24.1827 14.6615 21.3971 11.8779 17.9608 11.8779C14.5245 11.8779 11.7389 14.6615 11.7389 18.0952C11.7389 21.5289 14.5245 24.3125 17.9608 24.3125Z" stroke="white" stroke-width="3.5" stroke-miterlimit="10"/>
<path d="M27.2399 11.3531C27.9196 11.3531 28.4706 10.8021 28.4706 10.1224C28.4706 9.44263 27.9196 8.8916 27.2399 8.8916C26.5601 8.8916 26.0091 9.44263 26.0091 10.1224C26.0091 10.8021 26.5601 11.3531 27.2399 11.3531Z" fill="white"/>
</svg>
