<svg width="158" height="26" viewBox="0 0 158 26" fill="none" xmlns="http://www.w3.org/2000/svg">
<g clip-path="url(#clip0_435_2)">
<path d="M2.12799 0V25.7255H6.7698V15.0179H12.2319V10.6252H6.7698V4.39335H13.5963V0H2.12799Z" fill="white"/>
<path d="M19.3718 24.6548C17.872 23.7788 16.6251 22.5251 15.7539 21.0171C14.8617 19.4897 14.3992 17.7471 14.416 15.9758C14.3999 14.2056 14.8623 12.4643 15.7539 10.9378C16.6253 9.42991 17.8721 8.17622 19.3718 7.3001C20.8962 6.41869 22.6239 5.95483 24.3824 5.95483C26.1409 5.95483 27.8687 6.41869 29.3931 7.3001C30.8925 8.17657 32.1392 9.43018 33.0109 10.9378C33.9022 12.4644 34.3647 14.2057 34.3489 15.9758C34.3648 17.746 33.9023 19.4873 33.0109 21.0139C32.1394 22.5217 30.8926 23.7753 29.3931 24.6516C27.8687 25.533 26.1409 25.9969 24.3824 25.9969C22.6239 25.9969 20.8962 25.533 19.3718 24.6516V24.6548ZM27.1541 20.8478C27.9567 20.3523 28.6084 19.6446 29.0381 18.802C29.4782 17.9252 29.7074 16.9567 29.7074 15.9746C29.7074 14.9924 29.4782 14.024 29.0381 13.1471C28.595 12.2905 27.9266 11.5725 27.1056 11.0714C26.2847 10.5703 25.3428 10.3053 24.3824 10.3053C23.4221 10.3053 22.4801 10.5703 21.6592 11.0714C20.8383 11.5725 20.1699 12.2905 19.7267 13.1471C19.2867 14.024 19.0574 14.9924 19.0574 15.9746C19.0574 16.9567 19.2867 17.9252 19.7267 18.802C20.0712 19.4365 20.5392 19.9946 21.103 20.4431C21.6668 20.8915 22.3147 21.2211 23.008 21.412C23.7014 21.603 24.4259 21.6515 25.1382 21.5545C25.8506 21.4576 26.5362 21.2172 27.1541 20.8478Z" fill="white"/>
<path d="M41.2984 24.6548C39.7986 23.7788 38.5517 22.5251 37.6805 21.0171C36.7894 19.4894 36.328 17.7468 36.3457 15.9759C36.3296 14.2056 36.7921 12.4643 37.6836 10.9378C38.5546 9.43148 39.8003 8.17895 41.2984 7.30327C42.8228 6.42187 44.5505 5.95801 46.309 5.95801C48.0675 5.95801 49.7952 6.42187 51.3197 7.30327C52.819 8.17974 54.0658 9.43336 54.9375 10.9409C55.8294 12.4663 56.2929 14.2065 56.2786 15.9759C56.2945 17.746 55.8321 19.4873 54.9407 21.0139C54.0698 22.5227 52.8231 23.7775 51.3235 24.6548C49.799 25.5362 48.0713 26 46.3128 26C44.5543 26 42.8266 25.5362 41.3021 24.6548H41.2984ZM49.0845 20.851C49.887 20.3555 50.5388 19.6478 50.9685 18.8052C51.4085 17.9284 51.6378 16.9599 51.6378 15.9778C51.6378 14.9956 51.4085 14.0271 50.9685 13.1503C50.5254 12.2936 49.8569 11.5756 49.036 11.0746C48.2151 10.5735 47.2731 10.3085 46.3128 10.3085C45.3525 10.3085 44.4105 10.5735 43.5896 11.0746C42.7687 11.5756 42.1002 12.2936 41.6571 13.1503C41.2171 14.0271 40.9878 14.9956 40.9878 15.9778C40.9878 16.9599 41.2171 17.9284 41.6571 18.8052C42.0015 19.4397 42.4696 19.9978 43.0334 20.4462C43.5972 20.8947 44.2451 21.2242 44.9384 21.4152C45.6317 21.6062 46.3562 21.6546 47.0686 21.5577C47.781 21.4608 48.4666 21.2204 49.0845 20.851Z" fill="white"/>
<path d="M68.6272 7.52199C70.0557 8.36304 71.2308 9.57766 72.0275 11.0367C72.8544 12.5508 73.2775 14.2543 73.2558 15.9816C73.2775 17.7088 72.8544 19.4123 72.0275 20.9265C71.2312 22.3856 70.056 23.6 68.6272 24.4405C67.1499 25.3093 65.4646 25.7557 63.7534 25.7312H58.4634V6.23188H63.7534C65.4645 6.20784 67.1497 6.65391 68.6272 7.52199ZM67.235 20.0009C68.1539 19.1133 68.6135 17.7725 68.6139 15.9784C68.6144 14.1843 68.1547 12.8439 67.235 11.9572C66.7714 11.5143 66.2249 11.1685 65.6272 10.94C65.0294 10.7114 64.3925 10.6046 63.7534 10.6259H63.1052V21.3328H63.7534C64.3925 21.3541 65.0294 21.2473 65.6272 21.0187C66.2249 20.7902 66.7714 20.4444 67.235 20.0015" fill="white"/>
<path d="M79.8086 6.23193H75.1668V25.7256H79.8086V6.23193Z" fill="white"/>
<path d="M99.6955 6.23242L93.4699 25.7261H88.0084L81.7828 6.23242H86.6163L90.7392 19.6033L94.8621 6.23242H99.6955Z" fill="white"/>
<path d="M106.334 10.6253V13.757H111.164V18.1498H106.334V21.3329H112.53V25.7256H101.692V6.23193H112.53V10.6253H106.334Z" fill="white"/>
<path d="M120.344 20.1251H119.714V25.7262H115.072V6.23252H121.191C122.438 6.2263 123.668 6.51789 124.781 7.08329C125.883 7.63486 126.816 8.47416 127.485 9.51327C128.179 10.6066 128.535 11.8821 128.509 13.1788C128.535 14.4042 128.222 15.6128 127.605 16.6697C126.987 17.7266 126.09 18.5902 125.013 19.1641L128.782 25.7262H123.566L120.344 20.1251ZM119.714 15.7318H121.191C121.896 15.7598 122.585 15.5143 123.116 15.0458C123.368 14.8079 123.566 14.5178 123.696 14.1954C123.825 13.873 123.884 13.5262 123.867 13.1788C123.884 12.8314 123.825 12.4845 123.695 12.162C123.566 11.8395 123.368 11.5492 123.116 11.3112C122.585 10.8433 121.896 10.5978 121.191 10.6252H119.714V15.7318Z" fill="white"/>
<path d="M135.167 19.2186C135.144 19.5449 135.189 19.8725 135.3 20.1801C135.411 20.4876 135.585 20.7681 135.812 21.0032C136.271 21.4185 136.874 21.6357 137.491 21.608C137.96 21.6409 138.426 21.515 138.816 21.2504C138.953 21.1547 139.065 21.0276 139.143 20.8795C139.222 20.7314 139.264 20.5667 139.266 20.399C139.266 20.2279 139.228 20.059 139.155 19.9047C139.082 19.7503 138.975 19.6144 138.843 19.507C138.321 19.0951 137.769 18.7234 137.191 18.3951L136.208 17.8188C135.015 17.1282 133.895 16.3185 132.863 15.4021C132.221 14.8421 131.701 14.1555 131.334 13.3849C131.058 12.691 130.924 11.9486 130.938 11.2015C130.922 10.2314 131.198 9.27916 131.73 8.46976C132.267 7.6653 133.013 7.02436 133.887 6.61669C134.843 6.16806 135.887 5.94327 136.942 5.95928C138.127 5.93557 139.295 6.24446 140.315 6.85126C141.274 7.43128 142.053 8.26772 142.567 9.26728C143.105 10.3245 143.377 11.4982 143.359 12.6856H138.717C138.761 12.0666 138.592 11.4511 138.239 10.9422C138.083 10.7487 137.885 10.5945 137.66 10.492C137.435 10.3895 137.189 10.3415 136.942 10.352C136.596 10.3407 136.256 10.4419 135.973 10.6404C135.847 10.7272 135.745 10.8443 135.676 10.9809C135.607 11.1176 135.573 11.2695 135.577 11.4228C135.578 11.6135 135.619 11.8019 135.699 11.9749C135.779 12.1479 135.896 12.3013 136.041 12.4244C136.63 12.8975 137.26 13.3157 137.925 13.6739C139.116 14.3513 140.261 15.108 141.352 15.9391C142.119 16.5181 142.768 17.2408 143.263 18.0673C143.697 18.8368 143.919 19.7086 143.906 20.593C143.933 21.6365 143.627 22.6614 143.032 23.5168C142.439 24.3393 141.632 24.9807 140.699 25.3699C139.684 25.7999 138.592 26.0157 137.491 26.0039C136.149 26.0441 134.823 25.7016 133.667 25.0161C132.656 24.4055 131.837 23.5201 131.305 22.4619C130.796 21.4585 130.53 20.3486 130.527 19.2224L135.167 19.2186Z" fill="white"/>
<path d="M151.173 4.39335V10.6258H156.635V15.0185H151.173V21.3328H158V25.7261H146.53V0H157.999V4.39335H151.173Z" fill="white"/>
<path d="M0 0L6.76978 6.80684V0H0Z" fill="white"/>
<path d="M144.401 0L151.171 6.80684V0H144.401Z" fill="white"/>
</g>
<defs>
<clipPath id="clip0_435_2">
<rect width="158" height="26" fill="white"/>
</clipPath>
</defs>
</svg>
